<svg width="40" height="40" viewBox="0 0 40 40" fill="none" xmlns="http://www.w3.org/2000/svg">
<path d="M19.0397 3.33334C18.633 3.33334 18.2828 3.62829 18.2161 4.02996L17.7441 6.87175C16.9329 7.0112 16.1486 7.22681 15.3939 7.50652L13.5579 5.27996C13.2996 4.96496 12.8501 4.8829 12.4967 5.0879L10.8366 6.04819C10.4832 6.25152 10.3287 6.68056 10.472 7.06056L11.4811 9.75587C10.8554 10.2773 10.2773 10.8554 9.75584 11.4811L7.06053 10.472C6.68053 10.3287 6.25149 10.4833 6.04816 10.8366L5.08787 12.4968C4.88287 12.8501 4.96493 13.2996 5.27993 13.558L7.50649 15.3939C7.22677 16.1486 7.01117 16.9329 6.87172 17.7442L4.02993 18.2162C3.62826 18.2845 3.33331 18.6314 3.33331 19.0397V20.9603C3.33331 21.367 3.62826 21.7172 4.02993 21.7839L6.87172 22.2559C7.01117 23.0671 7.22677 23.8514 7.50649 24.6061L5.27993 26.4421C4.96493 26.7004 4.88454 27.1499 5.08787 27.5033L6.04816 29.1634C6.25149 29.5168 6.68053 29.6713 7.06053 29.528L9.75584 28.5189C10.2773 29.1446 10.8554 29.7227 11.4811 30.2442L10.472 32.9395C10.3287 33.3211 10.4849 33.7485 10.8366 33.9518L12.4967 34.9121C12.8501 35.1155 13.2996 35.0334 13.5579 34.7201L15.3906 32.4935C16.1462 32.7737 16.9318 32.9886 17.7441 33.1283L18.2161 35.9701C18.2845 36.3717 18.6314 36.6667 19.0397 36.6667H20.9603C21.3669 36.6667 21.7172 36.3717 21.7838 35.9701L22.2558 33.1283C23.0671 32.9888 23.8514 32.7732 24.6061 32.4935L26.442 34.7201C26.7004 35.0351 27.1499 35.1155 27.5032 34.9121L29.1634 33.9518C29.5167 33.7485 29.6713 33.3195 29.528 32.9395L28.5189 30.2442C29.1446 29.7227 29.7227 29.1446 30.2441 28.5189L32.9394 29.528C33.3211 29.6713 33.7485 29.5151 33.9518 29.1634L34.9121 27.5033C35.1154 27.1499 35.0334 26.7004 34.72 26.4421L32.4935 24.6094C32.7737 23.8538 32.9886 23.0681 33.1282 22.2559L35.97 21.7839C36.3717 21.7155 36.6666 21.3686 36.6666 20.9603V19.0397C36.6666 18.6331 36.3717 18.2828 35.97 18.2162L33.1282 17.7442C32.9888 16.9329 32.7732 16.1486 32.4935 15.3939L34.72 13.558C35.035 13.2996 35.1154 12.8501 34.9121 12.4968L33.9518 10.8366C33.7485 10.4833 33.3194 10.3287 32.9394 10.472L30.2441 11.4811C29.7227 10.8554 29.1446 10.2773 28.5189 9.75587L29.528 7.06056C29.6713 6.67889 29.5151 6.25152 29.1634 6.04819L27.5032 5.0879C27.1499 4.88457 26.7004 4.96662 26.442 5.27996L24.6094 7.50652C23.8537 7.22628 23.0681 7.01138 22.2558 6.87175L21.7838 4.02996C21.7155 3.62829 21.3686 3.33334 20.9603 3.33334H19.0397ZM18.3333 10.1497V15.3125C16.4044 16.0081 15 17.8447 15 20C15 20.3115 15.0354 20.615 15.0911 20.9115L10.6315 23.4863C10.2297 22.4005 9.99998 21.2294 9.99998 20C9.99998 15.0269 13.5922 10.9397 18.3333 10.1497ZM21.6666 10.1497C26.4077 10.9397 30 15.0269 30 20C30 21.2298 29.7673 22.4002 29.3652 23.4863L24.9088 20.9115C24.9645 20.615 25 20.3115 25 20C25 17.8447 23.5955 16.0081 21.6666 15.3125V10.1497ZM20 18.3333C20.9402 18.3333 21.6666 19.0598 21.6666 20C21.6666 20.9402 20.9402 21.6667 20 21.6667C19.0598 21.6667 18.3333 20.9402 18.3333 20C18.3333 19.0598 19.0598 18.3333 20 18.3333ZM16.7806 23.7826C17.6552 24.5295 18.7717 25 20 25C21.2283 25 22.3447 24.5295 23.2194 23.7826L27.7148 26.377C25.884 28.5934 23.1144 30 20 30C16.8856 30 14.116 28.5934 12.2851 26.377L16.7806 23.7826Z" />
</svg>
